<?xml version="1.0" encoding="UTF-8"?><svg id="Layer_1" xmlns="http://www.w3.org/2000/svg" viewBox="0 0 197.14351 62.69151"><defs><style>.cls-1{fill:#fff;stroke-width:0px;}</style></defs><path class="cls-1" d="M93.05318,22.4037c-.53816-1.33016-.80673-2.76694-.80673-4.31237,0-1.54441.26857-2.97713.80673-4.29714.53765-1.32001,1.28549-2.47857,2.24402-3.4767.95802-.99712,2.08257-1.77389,3.37313-2.33134,1.29107-.55745,2.66947-.83668,4.1362-.83668,1.85766,0,3.54423.38179,5.06021,1.14435,1.51496.76256,2.76187,1.82872,3.73969,3.19747s1.58401,2.95276,1.81907,4.75203h-4.7231c-.15637-1.01641-.51328-1.90691-1.07073-2.66947-.55694-.76256-1.24182-1.35859-2.05312-1.78912-.81181-.43053-1.71601-.64579-2.71313-.64579-.91944,0-1.74546.16652-2.47908.49856-.73311.33305-1.36875.81231-1.9064,1.4378-.53816.6265-.94888,1.36367-1.23218,2.21457-.2838.8509-.42545,1.78506-.42545,2.80147,0,1.03672.14165,1.98001.42545,2.83091.28329.8509.69402,1.58909,1.23218,2.21457.53765.62548,1.17329,1.10982,1.9064,1.45201.73362.34219,1.55964.51277,2.47908.51277.99712,0,1.9064-.21932,2.72785-.66.82145-.43966,1.50075-1.04585,2.0384-1.81857.53765-.7717.89507-1.65712,1.07073-2.65423h4.7231c-.25436,1.81857-.8707,3.41273-1.84801,4.78148-.97833,1.36875-2.22015,2.43491-3.72547,3.19747-1.50633.76256-3.18782,1.14333-5.04548,1.14333-1.46673,0-2.84513-.27822-4.1362-.83567-1.29056-.55745-2.41511-1.3393-3.37313-2.34657-.95853-1.00727-1.70637-2.17497-2.24402-3.50513ZM118.11864,28.6514h-4.48803l7.92006-21.06126h4.86931l7.86117,21.06126h-4.78097l-1.57119-4.51748h-8.20627l-1.60407,4.51748ZM120.98281,20.58513h5.71183l-2.82634-8.12618-2.88549,8.12618ZM150.44415,24.63248h-9.15173V7.59014h-4.45859v21.06126h13.61032v-4.01892ZM157.95399,7.59014h-4.45859v21.06126h4.45859V7.59014ZM166.72393,11.46183h9.15173v-3.87169h-13.61032v21.06126h4.45859v-8.03784h7.71495v-3.84224h-7.71495v-5.30949ZM94.88951,34.56809c.19089-.22237.41631-.39194.67625-.50973s.55237-.17668.87831-.17668c.35336,0,.67422.07615.96208.22846.28736.15231.53003.36351.72753.63462.19749.27009.32391.58588.37976.94533h1.67387c-.08326-.63767-.29802-1.19816-.64477-1.68352s-.78845-.86308-1.32559-1.13419c-.53714-.27009-1.13521-.40514-1.79369-.40514-.51988,0-1.00828.09849-1.46623.29649-.45743.19699-.85598.47317-1.19562.82653s-.60467.76459-.79505,1.23167c-.19089.4681-.28634.97579-.28634,1.5241,0,.5473.09545,1.05702.28634,1.52817.19039.47114.4554.88542.79505,1.24284.33965.3564.73819.6336,1.19562.83161.45794.19699.94635.29649,1.46623.29649.65848,0,1.25452-.13606,1.78861-.40616.53359-.27009.97376-.64782,1.32052-1.13318.34625-.48536.56456-1.04992.65493-1.69469h-1.67387c-.06245.35336-.18937.66711-.37976.94127-.19089.27314-.43154.4884-.72245.64477-.29142.15535-.6138.23354-.96716.23354-.32594,0-.61837-.06092-.87831-.18176-.25994-.12185-.48536-.29345-.67625-.5148-.19039-.22237-.33609-.48333-.43662-.7849s-.15079-.63564-.15079-1.00321c0-.36046.05026-.69148.15079-.99305s.24623-.56354.43662-.7849ZM108.214,34.79656c.19394.47114.29142.98798.29142,1.54949s-.09748,1.07936-.29142,1.55355c-.19394.4752-.46606.88745-.81587,1.23776-.35031.35031-.75748.62244-1.22202.81638s-.96716.29142-1.50735.29142c-.5407,0-1.04179-.09748-1.50278-.29142s-.86461-.46606-1.21136-.81638c-.34676-.35031-.61685-.76256-.81079-1.23776-.19445-.47419-.29142-.99204-.29142-1.55355s.09697-1.07835.29142-1.54949c.19394-.47114.46403-.88034.81079-1.22659.34676-.34726.75037-.61736,1.21136-.8113.46099-.19394.96208-.29142,1.50278-.29142.54019,0,1.04281.09748,1.50735.29142s.87171.46403,1.22202.8113c.3498.34625.62193.75545.81587,1.22659ZM106.87266,36.34604c0-.34016-.05026-.65899-.15079-.9565-.10052-.29853-.24572-.5605-.43662-.78591-.19089-.2244-.42291-.40108-.69656-.53003-.27416-.12794-.5808-.19191-.91995-.19191-.34016,0-.64477.06397-.91538.19191-.27009.12895-.50059.30563-.69148.53003-.19039.22542-.33609.48739-.43662.78591-.10052.29751-.15079.61634-.15079.9565,0,.33914.05026.66.15079.96158s.24623.56659.43662.79505c.19089.22846.42139.40717.69148.53613.2706.12794.57522.19191.91538.19191.33914,0,.64579-.06397.91995-.19191.27365-.12895.50567-.30766.69656-.53613s.33609-.49348.43662-.79505.15079-.62244.15079-.96158ZM114.55664,37.57264l-3.25433-4.94902h-1.70484v7.46516h1.4449v-5.20896l3.42086,5.20896h1.54949v-7.46516h-1.45607v4.94902ZM116.95855,34.04821h2.35012v6.04057h1.58046v-6.04057h2.36028v-1.4246h-6.29086v1.4246ZM128.40608,37.20913l1.92315,2.87965h-1.88152l-1.68454-2.64103h-.98798v2.64103h-1.57995v-7.46516h2.92128c.94279,0,1.67438.20917,2.19426.62853.51988.41936.77982,1.01742.77982,1.7942,0,.49856-.14723.94025-.4422,1.32509-.29446.38483-.70874.66407-1.24233.8377ZM128.13548,35.87287c.24979-.18379.37468-.45896.37468-.82653,0-.37468-.12489-.65391-.37468-.8377-.24928-.18379-.6133-.27517-1.09155-.27517h-1.26873v2.21457h1.26873c.47825,0,.84227-.09139,1.09155-.27517ZM135.16453,32.62362l2.78624,7.46516h-1.69367l-.55701-1.60127h-2.90929l-.56887,1.60127h-1.5901l2.80654-7.46516h1.72617ZM135.26252,37.22944l-1.00168-2.87965-1.02307,2.87965h2.02476ZM140.19275,34.56809c.18988-.22237.4153-.39194.67524-.50973s.55339-.17668.87933-.17668c.35336,0,.6732.07615.96158.22846.28736.15231.53003.36351.72804.63462.19699.27009.32391.58588.37874.94533h1.67438c-.08326-.63767-.29853-1.19816-.64477-1.68352-.34625-.48536-.78896-.86308-1.3261-1.13419-.53714-.27009-1.13419-.40514-1.79318-.40514-.51988,0-1.00828.09849-1.46623.29649-.45693.19699-.85598.47317-1.19512.82653-.34016.35336-.60517.76459-.79607,1.23167-.19089.4681-.28533.97579-.28533,1.5241,0,.5473.09443,1.05702.28533,1.52817s.45591.88542.79607,1.24284c.33914.3564.73819.6336,1.19512.83161.45794.19699.94635.29649,1.46623.29649.65899,0,1.25502-.13606,1.78811-.40616.5341-.27009.97376-.64782,1.32103-1.13318.34625-.48536.56456-1.04992.65493-1.69469h-1.67438c-.06194.35336-.18886.66711-.37874.94127-.19089.27314-.43154.4884-.72296.64477-.29142.15535-.6133.23354-.96665.23354-.32594,0-.61939-.06092-.87933-.18176-.25994-.12185-.48536-.29345-.67524-.5148-.19089-.22237-.33711-.48333-.43662-.7849-.10052-.30157-.15129-.63564-.15129-1.00321,0-.36046.05077-.69148.15129-.99305.09951-.30157.24572-.56354.43662-.7849ZM145.82209,34.04821h2.34962v6.04057h1.58097v-6.04057h2.35977v-1.4246h-6.29035v1.4246ZM153.05879,40.08878h1.57995v-7.46516h-1.57995v7.46516ZM161.12709,37.57264l-3.25433-4.94902h-1.70484v7.46516h1.4449v-5.20896l3.42086,5.20896h1.54949v-7.46516h-1.45607v4.94902ZM167.44994,37.32285h2.16177c-.06905.30563-.19191.57674-.36859.81638s-.4021.42646-.67625.56151c-.27314.13505-.594.20308-.96158.20308-.49856,0-.91995-.11271-1.26315-.33813s-.60111-.52902-.77474-.90979c-.17363-.38179-.25994-.8113-.25994-1.28955,0-.5341.0924-.98595.27517-1.35656.18379-.37062.43763-.65188.75951-.84278.32188-.18988.68437-.28533,1.08647-.28533.33914,0,.63767.05889.89456.17668.25588.11779.47114.27517.64477.47317.17262.19699.29751.42443.37366.68031h1.86121c-.16652-.5473-.42139-1.02555-.76357-1.43475-.3432-.40819-.76662-.72905-1.26924-.96158s-1.06921-.34828-1.69977-.34828c-.5473,0-1.05195.09545-1.51293.28634s-.86105.462-1.20121.81638c-.33914.35336-.60314.76256-.78998,1.22659-.18683.46403-.28025.97376-.28025,1.52817,0,.57573.09646,1.10373.2904,1.58604.19394.4813.46606.89558.81638,1.24182.35031.34726.75951.61533,1.22761.80622.46708.19089.97173.28634,1.51192.28634.59705,0,1.13216-.10255,1.60737-.30665.47419-.20511.87628-.4945,1.20527-.86918.33-.37366.57776-.81536.74428-1.32509.16551-.50973.23557-1.06921.20714-1.67946h-3.84631v1.25807ZM176.15185,32.62362h-1.57995v7.46516h4.82413v-1.4246h-3.24418v-6.04057ZM182.05737,32.62362h-1.57995v7.46516h4.82413v-1.4246h-3.24418v-6.04057ZM190.77654,37.95239c-.19089.27314-.43154.4884-.72296.64477-.29142.15535-.6133.23354-.96665.23354-.32594,0-.61939-.06092-.87933-.18176-.25994-.12185-.48536-.29345-.67524-.5148-.19089-.22237-.33711-.48333-.43662-.7849-.10052-.30157-.15129-.63564-.15129-1.00321,0-.36046.05077-.69148.15129-.99305.09951-.30157.24572-.56354.43662-.7849.18988-.22237.4153-.39194.67524-.50973s.55339-.17668.87933-.17668c.35336,0,.6732.07615.96158.22846.28736.15231.53003.36351.72804.63462.19699.27009.32391.58588.37874.94533h1.67438c-.08326-.63767-.29853-1.19816-.64477-1.68352-.34625-.48536-.78896-.86308-1.3261-1.13419-.53714-.27009-1.13419-.40514-1.79318-.40514-.51988,0-1.00828.09849-1.46623.29649-.45693.19699-.85598.47317-1.19512.82653-.34016.35336-.60517.76459-.79607,1.23167-.19089.4681-.28533.97579-.28533,1.5241,0,.5473.09443,1.05702.28533,1.52817.19089.47114.45591.88542.79607,1.24284.33914.3564.73819.6336,1.19512.83161.45794.19699.94635.29649,1.46623.29649.65899,0,1.25502-.13606,1.78811-.40616.5341-.27009.97376-.64782,1.32103-1.13318.34625-.48536.56456-1.04992.65493-1.69469h-1.67438c-.06194.35336-.18886.66711-.37874.94127Z"/><path class="cls-1" d="M38.80298,19.35595L0,42.58306v-19.35595S38.80298,0,38.80298,0l38.89406,23.27271v19.35595s-38.89406-23.27271-38.89406-23.27271ZM49.83969,59.22162v-20.05431s-11.03671-6.60376-11.03671-6.60376l-16.75994,10.03471,27.79665,16.62336Z"/><path class="cls-1" d="M179.17904,48.93737c0-.34912.25313-.6023.58489-.6023s.58489.25318.58489.6023c0,.34932-.25313.61116-.58489.61116s-.58489-.26184-.58489-.61116ZM184.26778,54.79529h-1.67531l-7.22847.00876c-1.22222,0-1.92066-.74213-1.92066-1.92942,0-.81189.3318-1.38802.88185-1.8507l.79433.55871c-.47133.41023-.67212.81189-.67212,1.28333,0,.59364.34912,1.00387.99521,1.00387h2.28725c-.24447-.35788-.39286-.78567-.39286-1.26576,0-1.33577,1.08249-2.31352,2.42692-2.31352.65475,0,1.3095.23576,1.79835.48009v3.09043h1.70163v-5.53477h1.00387v6.46897ZM180.5584,51.3643c-.30563-.09599-.55871-.13958-.78572-.13958-.82936,0-1.43181.58489-1.43181,1.37056,0,.62858.39291,1.12623,1.01282,1.26581h1.2047v-2.49679ZM187.79441,54.79529h3.60511v-.9342c0-1.57134-.71581-2.68881-1.82447-3.02923l1.43161-1.45793-.62858-.65475-2.26978,2.296.62858.66351c1.06508,0,1.65872.77691,1.65872,2.11268v.06972h-3.64v-5.53477h-1.00407v6.46897h2.04287ZM99.6635,54.2526c-.95477.38524-2.09611.56021-2.87329.56021-.54126,0-1.19052-.08757-1.91868-.41154-.35403.13135-.56071.52542-.56071,1.07681,0,.65644.35403,1.46172,1.01342,2.09235l-.95444.46366c-.64925-.63896-1.10181-1.56677-1.10181-2.53853,0-1.00672.42314-1.81216,1.14134-2.15329.12792-.66527.1967-3.04646,2.20377-3.04646,1.72214,0,3.15854,1.812,3.05039,3.95679ZM98.51219,53.63112c-.11812-1.31289-1.04283-2.39868-1.8597-2.39868-1.0724,0-.98385,1.85595-1.16095,2.3812.44275.1838.83648.26254,1.30864.26254.52149,0,1.14134-.09623,1.71201-.24506ZM101.43432,53.736c-.3542,0-.61968.23657-.61968.5692,0,.34113.26549.58652.61968.58652.35403,0,.62001-.24539.62001-.58652,0-.33263-.26598-.5692-.62001-.5692ZM109.29628,54.2526c-.9546.38524-2.09611.56021-2.87329.56021-.54126,0-1.19052-.08757-1.91868-.41154-.3542.13135-.56071.52542-.56071,1.07681,0,.65644.3542,1.46172,1.01326,2.09235l-.95428.46366c-.64942-.63896-1.10197-1.56677-1.10197-2.53853,0-1.00672.42314-1.81216,1.14134-2.15329.12809-.66527.1967-3.04646,2.20394-3.04646,1.72198,0,3.15838,1.812,3.05039,3.95679ZM108.14498,53.63112c-.11796-1.31289-1.04299-2.39868-1.85954-2.39868-1.0724,0-.98401,1.85595-1.16095,2.3812.44258.1838.83616.26254,1.30831.26254.52182,0,1.14134-.09623,1.71218-.24506ZM111.06678,53.736c-.3542,0-.61985.23657-.61985.5692,0,.34113.26565.58652.61985.58652.35403,0,.62001-.24539.62001-.58652,0-.33263-.26598-.5692-.62001-.5692ZM114.69764,48.44901c0-.35011-.28542-.60416-.65906-.60416-.37413,0-.65938.25405-.65938.60416,0,.34995.28525.61282.65938.61282.37364,0,.65906-.26287.65906-.61282ZM113.86149,49.69197l-.25601.91049c1.65303.34113,2.63688,1.52299,2.87296,3.03748-.63929.15749-1.31844.23624-2.06621.23624-.67883,0-1.26894-.06143-1.87915-.19278v.96294c.57067.10521,1.20032.16648,1.86951.16648,1.22009,0,2.3415-.19262,3.25673-.5429-.01961-2.34591-1.47594-4.09648-3.79783-4.57795ZM121.40781,52.49304h2.42025v-.69141h-2.42025v.69141ZM130.77446,49.94569c.34423,0,.60024-.23624.60024-.55139,0-.32397-.25601-.55139-.60024-.55139-.33459,0-.60024.22742-.60024.55139,0,.31515.26565.55139.60024.55139ZM132.32914,49.94569c.3444,0,.60024-.23624.60024-.55139,0-.32397-.25585-.55139-.60024-.55139-.33459,0-.60024.22742-.60024.55139,0,.31515.26565.55139.60024.55139ZM134.10013,53.87618h-4.27031c-.728,0-1.12141-.40272-1.12141-.99773,0-.47297.22611-.87553.75757-1.28691l-.89563-.56021c-.61968.46382-.99349,1.04168-.99349,1.85562,0,1.19068.78682,1.93486,2.1644,1.93486l5.4904-.00899v-4.25446h-1.13154v3.31783ZM140.42718,53.87618h-1.73194v-4.3154h-1.13154v4.3154h-1.2495v.93663h5.24436v-6.4865h-1.13138v5.54987ZM147.53107,50.90013l.05898.01732v3.91285c0,1.2343-.79711,1.95201-2.10558,1.96982l-.1771-.94545c.80675.04346,1.15131-.25421,1.15131-1.02436v-.16615c-.35453.09623-.7481.14867-1.09233.14867-1.49554,0-2.72543-.98924-2.72543-2.25834,0-1.26061,1.22989-2.25867,2.72543-2.25867.68879,0,1.52511.2364,2.16473.60433ZM146.45868,51.46018c-.32495-.13119-.67915-.22775-1.06276-.22775-.95444,0-1.62363.60416-1.62363,1.32204,0,.72637.66919,1.32171,1.62363,1.32171.37413,0,.74761-.09623,1.06276-.21892v-2.19707ZM154.08358,49.5433c.3444,0,.60024-.23673.60024-.55172,0-.32397-.25585-.55139-.60024-.55139-.33427,0-.60024.22742-.60024.55139,0,.31499.26598.55172.60024.55172ZM155.63842,49.5433c.34423,0,.60024-.23673.60024-.55172,0-.32397-.25601-.55139-.60024-.55139-.33459,0-.60008.22742-.60008.55139,0,.31499.26549.55172.60008.55172ZM170.29861,48.32631v6.4865h-4.9493c-.63913,0-1.15082-.16648-1.51498-.45516-.8953.31515-1.88911.45516-2.59784.45516-.52117,0-1.14134-.07875-1.83961-.35894-.31499.22775-.73813.35894-1.24982.35894h-9.0814v-6.4865h1.13187v5.54987h2.36094c-.27561-.35028-.44258-.77914-.44258-1.26061,0-1.33903,1.21993-2.31977,2.73523-2.31977.7378,0,1.47594.2364,2.02684.48147v3.09891h1.2691c.41334,0,.65906-.16632.72817-.5692.08855-.49879.15749-3.15086,2.2041-3.15086,1.47561,0,2.78457,1.39147,3.00105,3.28254.1771.28003.50173.43752.96408.43752h1.13154v-5.54987h1.13154v5.54987h1.85954v-5.54987h1.13154ZM155.74642,51.37261c-.3444-.09606-.62965-.14018-.88517-.14018-.93484,0-1.61399.58652-1.61399,1.37464,0,.63896.44291,1.12043,1.15131,1.2691h1.34785v-2.50357ZM162.9686,53.62246c-.14769-1.37448-1.02338-2.5302-1.84026-2.5302-1.02322,0-1.01326,1.80367-1.13121,2.39901l-.02973.13119c.42314.17498.81655.25372,1.27907.25372.52166,0,1.14151-.09623,1.72214-.25372Z"/></svg>